<svg xmlns="http://www.w3.org/2000/svg" width="1200" height="630" viewBox="0 0 1200 630" role="img" aria-labelledby="title desc">
  <title id="title">BoundaryCI — AI-assisted tenant-isolation security for SaaS</title>
  <desc id="desc">BoundaryCI combines deterministic CI checks with optional managed AI review for SaaS tenant boundaries.</desc>
  <defs>
    <radialGradient id="glow" cx="0" cy="0" r="1" gradientTransform="translate(310 120) rotate(38) scale(710 530)" gradientUnits="userSpaceOnUse">
      <stop stop-color="#7657f6" stop-opacity=".32"/>
      <stop offset="1" stop-color="#090b12" stop-opacity="0"/>
    </radialGradient>
    <linearGradient id="panel" x1="172" y1="74" x2="1028" y2="556" gradientUnits="userSpaceOnUse">
      <stop stop-color="#151925"/>
      <stop offset="1" stop-color="#0e1119"/>
    </linearGradient>
    <pattern id="grid" width="42" height="42" patternUnits="userSpaceOnUse">
      <path d="M42 0H0V42" fill="none" stroke="#8b74ff" stroke-opacity=".055"/>
    </pattern>
  </defs>
  <rect width="1200" height="630" fill="#090b12"/>
  <rect width="1200" height="630" fill="url(#glow)"/>
  <circle cx="1100" cy="-8" r="305" fill="none" stroke="#8b74ff" stroke-opacity=".10"/>
  <circle cx="1100" cy="-8" r="225" fill="none" stroke="#8b74ff" stroke-opacity=".08"/>
  <rect x="64" y="54" width="1072" height="522" rx="28" fill="url(#panel)" stroke="#303648"/>
  <rect x="64" y="54" width="1072" height="522" rx="28" fill="url(#grid)"/>

  <g transform="translate(113 102)">
    <rect width="68" height="68" rx="16" fill="#10131d" stroke="#343b4d"/>
    <path d="M34 10 56 18.4v15.9c0 13.8-9.1 24.1-22 28.8-12.9-4.7-22-15-22-28.8V18.4L34 10Z" fill="#211b3c" stroke="#a894ff" stroke-width="3"/>
    <path d="m25.1 35.8 5.9 6.1 12.3-13.1" fill="none" stroke="#fff" stroke-linecap="round" stroke-linejoin="round" stroke-width="4"/>
  </g>
  <text x="199" y="148" fill="#fff" font-family="Segoe UI, Arial, sans-serif" font-size="34" font-weight="800" letter-spacing="-1.5">Boundary<tspan fill="#9d89ff">CI</tspan></text>
  <text x="199" y="174" fill="#747c8f" font-family="Segoe UI, Arial, sans-serif" font-size="14" font-weight="600">CONTINUOUS TENANT ASSURANCE</text>

  <text x="113" y="262" fill="#9d89ff" font-family="Segoe UI, Arial, sans-serif" font-size="16" font-weight="800" letter-spacing="2.4">DETERMINISTIC CI + MANAGED AI REVIEW</text>
  <text x="113" y="330" fill="#f5f6fb" font-family="Segoe UI, Arial, sans-serif" font-size="49" font-weight="800" letter-spacing="-2.2">Stop one customer from seeing</text>
  <text x="113" y="389" fill="#a894ff" font-family="Segoe UI, Arial, sans-serif" font-size="49" font-weight="800" letter-spacing="-2.2">another customer’s data.</text>
  <text x="113" y="444" fill="#a2a8ba" font-family="Segoe UI, Arial, sans-serif" font-size="22">Supabase and PostgreSQL tenant review inside every pull request.</text>

  <g transform="translate(113 490)">
    <rect width="290" height="48" rx="9" fill="#080a10" stroke="#303648"/>
    <text x="17" y="30" fill="#5de2ac" font-family="Cascadia Code, Consolas, monospace" font-size="15">$</text>
    <text x="39" y="30" fill="#e4e6ee" font-family="Cascadia Code, Consolas, monospace" font-size="15">npx boundaryci scan .</text>
  </g>
  <text x="1086" y="528" fill="#6f778a" font-family="Segoe UI, Arial, sans-serif" font-size="15" text-anchor="end">boundaryci.com</text>
</svg>
